<svg id="Layer_1" data-name="Layer 1" xmlns="http://www.w3.org/2000/svg" viewBox="0 0 307.92 199.03"><defs><style>.cls-1{fill:#1d1d1b;}</style></defs><path class="cls-1" d="M359.15,138.89c-7.46,23.8-22.53,44.09-37.18,63.9q-10.91,14.76-21.35,29.85c-6.77,9.71-13.54,19.43-20.86,28.74a212.45,212.45,0,0,1-24.09,26.34,136.52,136.52,0,0,1-29.45,20.41c-22.14,11.34-46.95,16.79-71.55,19.32-28.35,2.92-56.89,2.23-85.33,3.25q-5.37.19-10.76.48c-3.2.17-3.22,5.17,0,5,28.88-1.55,57.86-.67,86.71-2.89,25.63-2,51.31-6.51,75-16.84a142.18,142.18,0,0,0,32.15-19.4,182.13,182.13,0,0,0,25.2-25.16c15.66-18.68,28.68-39.36,43.06-59,14.86-20.3,30.74-40.31,40.15-63.88,1.15-2.89,2.19-5.83,3.12-8.8s-3.86-4.39-4.82-1.33Z" transform="translate(-56.18 -137.15)"/></svg>